<svg width="20" height="21" viewBox="0 0 20 21" fill="none" xmlns="http://www.w3.org/2000/svg">
<rect x="0.5" y="1" width="19" height="19" rx="9.5" stroke="white"/>
<path d="M14.9313 12.162L10.2892 7.11594C10.2561 7.08004 10.2127 7.05081 10.1624 7.03066C10.1121 7.01051 10.0565 7 10 7C9.94355 7 9.8879 7.01051 9.83762 7.03066C9.78734 7.05081 9.74387 7.08004 9.71076 7.11594L5.06867 12.162C5.0295 12.2041 5.00608 12.2539 5.00103 12.3059C4.99599 12.3579 5.00951 12.41 5.0401 12.4563C5.07026 12.502 5.11587 12.5403 5.17193 12.567C5.22799 12.5937 5.29233 12.6078 5.3579 12.6077H14.6421C14.7077 12.6078 14.772 12.5937 14.8281 12.567C14.8841 12.5403 14.9297 12.502 14.9599 12.4563C14.9905 12.41 15.004 12.3579 14.999 12.3059C14.9939 12.2539 14.9705 12.2041 14.9313 12.162Z" fill="white"/>
</svg>
