<svg width="20" height="21" viewBox="0 0 20 21" fill="none" xmlns="http://www.w3.org/2000/svg">
<rect x="0.5" y="-0.5" width="19" height="19" rx="9.5" transform="matrix(1 0 0 -1 0 19.5)" stroke="white"/>
<path d="M14.9313 8.83804L10.2892 13.8841C10.2561 13.92 10.2127 13.9492 10.1624 13.9693C10.1121 13.9895 10.0565 14 10 14C9.94355 14 9.8879 13.9895 9.83762 13.9693C9.78734 13.9492 9.74387 13.92 9.71076 13.8841L5.06867 8.83804C5.0295 8.79592 5.00608 8.74605 5.00103 8.69406C4.99599 8.64206 5.00951 8.58998 5.0401 8.54369C5.07026 8.49798 5.11587 8.45968 5.17193 8.43297C5.22799 8.40627 5.29233 8.3922 5.3579 8.39231H14.6421C14.7077 8.3922 14.772 8.40627 14.8281 8.43297C14.8841 8.45968 14.9297 8.49798 14.9599 8.54369C14.9905 8.58998 15.004 8.64206 14.999 8.69406C14.9939 8.74605 14.9705 8.79592 14.9313 8.83804Z" fill="white"/>
</svg>
