<svg width="23" height="22" viewBox="0 0 23 22" fill="none" xmlns="http://www.w3.org/2000/svg">
<g clip-path="url(#clip0_5773_1595)">
<path d="M7.03125 13.0625H2.60478C2.29816 13.0625 2.00036 12.9599 1.7587 12.7712C1.51703 12.5825 1.34539 12.3184 1.27103 12.0209L0.84375 10.3125H7.03125V13.0625Z" fill="#F96464"/>
<path d="M4.65378 13.0625H7.03322V10.3125H4.29559C4.32186 11.2389 4.44186 12.1603 4.65378 13.0625Z" fill="#D34444"/>
<path d="M3.29228 12.0312C2.98566 12.0312 2.68786 11.9287 2.4462 11.74C2.20453 11.5512 2.03289 11.2872 1.95853 10.9897L1.78906 10.3125H0.84375L1.27103 12.0209C1.34539 12.3184 1.51703 12.5825 1.7587 12.7712C2.00036 12.9599 2.29816 13.0625 2.60478 13.0625H7.03125V12.0312H3.29228Z" fill="#D34444"/>
<path d="M8.40625 15.8125H3.97978C3.67316 15.8125 3.37536 15.7099 3.1337 15.5212C2.89203 15.3325 2.72039 15.0684 2.64603 14.7709L2.21875 13.0625H8.40625V15.8125Z" fill="#F96464"/>
<path d="M5.62713 15.8125H8.40806V13.0625H4.65363C4.87979 14.0111 5.20612 14.9329 5.62713 15.8125Z" fill="#D34444"/>
<path d="M4.66728 14.7812C4.36066 14.7812 4.06286 14.6787 3.8212 14.49C3.57953 14.3012 3.40789 14.0372 3.33353 13.7397L3.16406 13.0625H2.21875L2.64603 14.7709C2.72039 15.0684 2.89203 15.3325 3.1337 15.5212C3.37536 15.7099 3.67316 15.8125 3.97978 15.8125H8.40625V14.7812H4.66728Z" fill="#D34444"/>
<path d="M9.78125 18.5625H5.35478C5.04816 18.5625 4.75036 18.4599 4.5087 18.2712C4.26703 18.0825 4.09539 17.8184 4.02103 17.5209L3.59375 15.8125H9.78125V18.5625Z" fill="#F96464"/>
<path d="M7.36494 18.5625H9.78356V15.8125H5.62762C6.09599 16.7946 6.67917 17.7177 7.36494 18.5625Z" fill="#D34444"/>
<path d="M6.04228 17.5312C5.73566 17.5312 5.43786 17.4287 5.1962 17.24C4.95453 17.0512 4.78289 16.7872 4.70853 16.4897L4.53906 15.8125H3.59375L4.02103 17.5209C4.09539 17.8184 4.26703 18.0825 4.5087 18.2712C4.75036 18.4599 5.04816 18.5625 5.35478 18.5625H9.78125V17.5312H6.04228Z" fill="#D34444"/>
<path d="M15.9688 13.0625H20.3952C20.7018 13.0625 20.9996 12.9599 21.2413 12.7712C21.483 12.5825 21.6546 12.3184 21.729 12.0209L22.1562 10.3125H15.9688V13.0625Z" fill="#F96464"/>
<path d="M21.0827 12.0312H19.3237C19.228 12.0315 19.1334 12.0116 19.0458 11.973C18.9583 11.9343 18.8798 11.8777 18.8155 11.8068C18.7513 11.7359 18.7026 11.6523 18.6726 11.5614C18.6427 11.4705 18.6322 11.3743 18.6418 11.2791C18.6748 10.9583 18.6963 10.6361 18.7064 10.3125H15.9688V13.0625H20.3952C20.7018 13.0625 20.9996 12.9599 21.2413 12.7712C21.483 12.5825 21.6546 12.3184 21.729 12.0209L21.774 11.8418C21.5645 11.9652 21.3259 12.0306 21.0827 12.0312Z" fill="#D34444"/>
<path d="M14.5938 15.8125H19.0202C19.3268 15.8125 19.6246 15.7099 19.8663 15.5212C20.108 15.3325 20.2796 15.0684 20.354 14.7709L20.7812 13.0625H14.5938V15.8125Z" fill="#F96464"/>
<path d="M19.7077 14.7812H18.7775C18.6705 14.7817 18.5648 14.7571 18.469 14.7094C18.3732 14.6617 18.29 14.5922 18.2259 14.5064C18.1618 14.4207 18.1187 14.3211 18.1001 14.2157C18.0814 14.1103 18.0878 14.002 18.1186 13.8995C18.2045 13.6245 18.281 13.3455 18.3482 13.0625H14.5938V15.8125H19.0202C19.3268 15.8125 19.6246 15.7099 19.8663 15.5212C20.108 15.3325 20.2796 15.0684 20.354 14.7709L20.399 14.5918C20.1895 14.7152 19.9509 14.7806 19.7077 14.7812Z" fill="#D34444"/>
<path d="M13.2188 18.5625H17.6452C17.9518 18.5625 18.2496 18.4599 18.4913 18.2712C18.733 18.0825 18.9046 17.8184 18.979 17.5209L19.4062 15.8125H13.2188V18.5625Z" fill="#F96464"/>
<path d="M18.3327 17.5312H17.6133C17.4939 17.5314 17.3765 17.5003 17.2728 17.4412C17.1692 17.382 17.0827 17.2968 17.0221 17.194C16.9614 17.0911 16.9287 16.9743 16.9271 16.8549C16.9255 16.7355 16.9552 16.6178 17.0131 16.5134C17.1405 16.2842 17.261 16.0506 17.3747 15.8125H13.2188V18.5625H17.6452C17.9518 18.5625 18.2496 18.4599 18.4913 18.2712C18.733 18.0825 18.9046 17.8184 18.979 17.5209L19.024 17.3418C18.8145 17.4652 18.5759 17.5306 18.3327 17.5312Z" fill="#D34444"/>
<path d="M11.5 5.84375L18.0312 8.25V9.89587C18.0311 12.0501 17.5249 14.1741 16.5533 16.0967C15.5817 18.0193 14.172 19.6868 12.4378 20.9646L11.5 21.6562L10.5622 20.9653C8.82793 19.6874 7.41814 18.0198 6.44655 16.0971C5.47497 14.1743 4.96876 12.0502 4.96875 9.89587V8.25L11.5 5.84375Z" fill="#F8C460"/>
<path d="M6 9.99041V8.9375L11.5 6.875L17 8.9375V9.99041C17.0002 11.9976 16.5121 13.9747 15.5779 15.7512C14.6436 17.5277 13.2913 19.0503 11.6375 20.1877L11.5 20.2812L11.3642 20.1877C9.71009 19.0505 8.35742 17.528 7.4229 15.7515C6.48837 13.9749 6.00003 11.9977 6 9.99041Z" fill="#FCAB68"/>
<path d="M12.3937 19.5002C10.7399 18.3628 9.38761 16.8402 8.45339 15.0637C7.51916 13.2872 7.03109 11.3101 7.03125 9.30291V8.55078L6 8.9375V9.99041C6.00003 11.9977 6.48837 13.9749 7.4229 15.7515C8.35742 17.528 9.71009 19.0505 11.3642 20.1877L11.5 20.2812L11.6375 20.1877C11.9276 19.9884 12.2037 19.7753 12.4732 19.5528L12.3937 19.5002Z" fill="#EA8E49"/>
<path d="M11.5 14.6809L9.4375 16.1562L10.125 13.75L9.69531 13.4062H7.71875L9.4375 14.7812L8.75 17.1875L10.8125 15.7121L12.875 17.1875L12.3281 15.2732L11.5 14.6809Z" fill="#EA8E49"/>
<path d="M11.5 9.96875L12.1875 12.375H14.5938L12.875 13.75L13.5625 16.1562L11.5 14.6809L9.4375 16.1562L10.125 13.75L8.40625 12.375H10.8125L11.5 9.96875Z" fill="#F96464"/>
<path d="M11.5 0.34375L12.1875 1.71875H13.5625L12.5312 2.75L12.875 4.46875L11.5 3.4375L10.125 4.46875L10.4688 2.75L9.4375 1.71875H10.8125L11.5 0.34375Z" fill="#F8C460"/>
<path d="M11.5 2.75L10.2869 3.65991L10.125 4.46875L11.5 3.4375L12.875 4.46875L12.7131 3.65991L11.5 2.75Z" fill="#FAAF42"/>
<path d="M5.65625 1.71875L6.34375 3.09375H7.71875L6.6875 4.125L7.03125 5.84375L5.65625 4.8125L4.28125 5.84375L4.625 4.125L3.59375 3.09375H4.96875L5.65625 1.71875Z" fill="#F8C460"/>
<path d="M5.65625 4.125L4.44316 5.03491L4.28125 5.84375L5.65625 4.8125L7.03125 5.84375L6.86934 5.03491L5.65625 4.125Z" fill="#FAAF42"/>
<path d="M17.3438 1.71875L16.6562 3.09375H15.2812L16.3125 4.125L15.9688 5.84375L17.3438 4.8125L18.7188 5.84375L18.375 4.125L19.4062 3.09375H18.0312L17.3438 1.71875Z" fill="#F8C460"/>
<path d="M17.3438 4.125L18.5568 5.03491L18.7188 5.84375L17.3438 4.8125L15.9688 5.84375L16.1307 5.03491L17.3438 4.125Z" fill="#FAAF42"/>
</g>
<defs>
<clipPath id="clip0_5773_1595">
<rect width="22" height="22" fill="white" transform="translate(0.5)"/>
</clipPath>
</defs>
</svg>
