<svg width="24" height="24" viewBox="0 0 24 24" fill="none" xmlns="http://www.w3.org/2000/svg">
<rect x="0.5" y="-0.5" width="23" height="23" rx="11.5" transform="matrix(1 0 0 -1 0 23)" stroke="#EC622B"/>
<path d="M17.9176 9.80565L12.3471 15.8609C12.3074 15.904 12.2552 15.939 12.1949 15.9632C12.1345 15.9874 12.0677 16 12 16C11.9323 16 11.8655 15.9874 11.8051 15.9632C11.7448 15.939 11.6926 15.904 11.6529 15.8609L6.0824 9.80565C6.0354 9.7551 6.00729 9.69527 6.00124 9.63287C5.99518 9.57047 6.01142 9.50798 6.04812 9.45243C6.08431 9.39758 6.13905 9.35161 6.20632 9.31957C6.27359 9.28752 6.3508 9.27064 6.42948 9.27077H17.5705C17.6492 9.27064 17.7264 9.28752 17.7937 9.31957C17.861 9.35161 17.9157 9.39758 17.9519 9.45243C17.9886 9.50798 18.0048 9.57047 17.9988 9.63287C17.9927 9.69527 17.9646 9.7551 17.9176 9.80565Z" fill="#EC622B"/>
</svg>
