<svg width="24" height="24" viewBox="0 0 24 24" fill="none" xmlns="http://www.w3.org/2000/svg">
<rect x="0.5" y="0.5" width="23" height="23" rx="11.5" stroke="#EC622B"/>
<path d="M17.9176 14.1944L12.3471 8.13913C12.3074 8.09605 12.2552 8.06098 12.1949 8.03679C12.1345 8.01261 12.0677 8 12 8C11.9323 8 11.8655 8.01261 11.8051 8.03679C11.7448 8.06098 11.6926 8.09605 11.6529 8.13913L6.0824 14.1944C6.0354 14.2449 6.00729 14.3047 6.00124 14.3671C5.99518 14.4295 6.01142 14.492 6.04812 14.5476C6.08431 14.6024 6.13905 14.6484 6.20632 14.6804C6.27359 14.7125 6.3508 14.7294 6.42948 14.7292H17.5705C17.6492 14.7294 17.7264 14.7125 17.7937 14.6804C17.861 14.6484 17.9157 14.6024 17.9519 14.5476C17.9886 14.492 18.0048 14.4295 17.9988 14.3671C17.9927 14.3047 17.9646 14.2449 17.9176 14.1944Z" fill="#EC622B"/>
</svg>
